# xmcd
#
# Track frame offsets:
# 150
# 11805
# 36647
# 54700
# 74617
# 92132
# 103330
# 118657
# 138027
# 155065
# 172277
# 186437
# 211740
#
# Disc length: 3200 seconds
#
#
# Revision: 8
# Processed by: cddbd v1.5.2PL0 Copyright (c) Steve Scherf et al.
# Submitted via: FreeRIP 2.951 
#
DISCID=cc0c7e0d
DTITLE=Ben Harper - Welcome to the Cruel World
DYEAR=1993
DGENRE=Blues
TTITLE0=The Three of Us
TTITLE1=Whipping Boy
TTITLE2=Breakin' Down
TTITLE3=Don't Take That Attitude to Your Grave
TTITLE4=Waiting on an Angel
TTITLE5=Mama's Got a Girlfriend Now
TTITLE6=Forever
TTITLE7=Like a King
TTITLE8=Pleasure and Pain
TTITLE9=Walk Away
TTITLE10=How Many Miles Must We March
TTITLE11=Welcome to the Cruel World
TTITLE12=I'll Rise
EXTD=
EXTT0=
EXTT1=
EXTT2=
EXTT3=
EXTT4=
EXTT5=
EXTT6=
EXTT7=
EXTT8=
EXTT9=
EXTT10=
EXTT11=
EXTT12=
PLAYORDER=
